<svg xmlns="http://www.w3.org/2000/svg" viewBox="0 0 525.45 88.71"><defs><style>.cls-1{fill:#324a6d;}.cls-2{fill:#8041ba;}</style></defs><g id="Calque_2" data-name="Calque 2"><g id="Calque_1-2" data-name="Calque 1"><path class="cls-1" d="M32.91,59.77H13L0,44.28,13,28.73H32.91L20,44.28Z"/><path class="cls-1" d="M86,35.21H69.19C68,33.27,65.67,32,62.35,32c-6.19,0-9.64,4.4-9.64,11.16,0,7.92,3.6,11.88,11.44,11.88a10.44,10.44,0,0,0,8.93-4.46H60.34V39.32h26v16C82.8,61.42,75.6,69.13,62.43,69.13,46.37,69.13,36.5,58.4,36.5,43.2s9.8-25.92,25.78-25.92C75.82,17.28,84.53,24.34,86,35.21Z"/><path class="cls-1" d="M106.71,27.65c5.4,0,9.28,2.38,11.23,6.05V28.15h15.91V68.77H117.94V63.22c-2,3.67-5.83,6-11.23,6-9.37,0-16.78-7.7-16.78-20.81S97.34,27.65,106.71,27.65Zm5.32,14c-3.31,0-5.9,2.38-5.9,6.84s2.59,6.84,5.9,6.84,5.91-2.38,5.91-6.84S115.35,41.62,112,41.62Z"/><path class="cls-1" d="M157,68.77h-16V28.15h16v7.49c3.17-4.53,8.07-7.77,13.32-7.77V44.93h-4.53c-5.76,0-8.79,1.66-8.79,7.2Z"/><path class="cls-1" d="M189.29,27.65c5.4,0,9.29,2.38,11.23,6.05V28.15h15.91V68.77H200.52V63.22c-1.94,3.67-5.83,6-11.23,6-9.36,0-16.78-7.7-16.78-20.81S179.93,27.65,189.29,27.65Zm5.33,14c-3.32,0-5.91,2.38-5.91,6.84s2.59,6.84,5.91,6.84,5.9-2.38,5.9-6.84S197.93,41.62,194.62,41.62Z"/><path class="cls-1" d="M238.25,27.65c5.4,0,9.29,2.38,11.23,6.05V28.15h15.91v39.9c0,10.72-5.54,20.66-20.73,20.66-13.25,0-21-6.69-22-17h15.7c.43,2.09,2.23,3.17,5.18,3.17,3.24,0,6-1.16,6-6.84V63.22c-1.94,3.67-5.83,6-11.23,6-9.36,0-16.78-7.7-16.78-20.81S228.89,27.65,238.25,27.65Zm5.33,14c-3.32,0-5.91,2.38-5.91,6.84s2.59,6.84,5.91,6.84,5.9-2.38,5.9-6.84S246.89,41.62,243.58,41.62Z"/><path class="cls-1" d="M291.17,69.27c-12.17,0-20.74-7.85-20.74-20.81S279,27.65,291.17,27.65s20.74,7.7,20.74,20.45a24.13,24.13,0,0,1-.22,3.17H286.06c.21,4.1,2.16,5.25,4.32,5.25a3.88,3.88,0,0,0,3.74-2.37H311C309.31,62.79,301.39,69.27,291.17,69.27Zm-5-25h9.5c0-2.8-2.16-4.1-4.53-4.1A4.57,4.57,0,0,0,286.2,44.28Z"/><path class="cls-2" d="M339.62,60.85H317.09V47.52l21.45-30.6h17.21V47h5.19V60.85h-5.19v7.92H339.62ZM340.92,47V35.14L333.14,47Z"/><path class="cls-2" d="M387.94,15c15.19,0,21.6,10.94,21.6,26.71s-6.41,26.79-21.6,26.79-21.61-11-21.61-26.79S372.67,15,387.94,15Zm0,15.12c-5.26,0-5.91,5-5.91,11.59s.65,11.67,5.91,11.67,5.83-5,5.83-11.67S393.12,30.1,387.94,30.1Z"/><path class="cls-2" d="M438,60.85H415.44V47.52l21.45-30.6H454.1V47h5.19V60.85H454.1v7.92H438ZM439.27,47V35.14L431.49,47Z"/><path class="cls-1" d="M478.94,0h15.27L475.12,83H459.79Z"/><path class="cls-1" d="M505.51,44.28l-13-15.55h19.94l13,15.55-13,15.49H492.55Z"/><path class="cls-1" d="M32.91,59.77H13L0,44.28,13,28.73H32.91L20,44.28Z"/><path class="cls-1" d="M86,35.21H69.19C68,33.27,65.67,32,62.35,32c-6.19,0-9.64,4.4-9.64,11.16,0,7.92,3.6,11.88,11.44,11.88a10.44,10.44,0,0,0,8.93-4.46H60.34V39.32h26v16C82.8,61.42,75.6,69.13,62.43,69.13,46.37,69.13,36.5,58.4,36.5,43.2s9.8-25.92,25.78-25.92C75.82,17.28,84.53,24.34,86,35.21Z"/><path class="cls-1" d="M106.71,27.65c5.4,0,9.28,2.38,11.23,6.05V28.15h15.91V68.77H117.94V63.22c-2,3.67-5.83,6-11.23,6-9.37,0-16.78-7.7-16.78-20.81S97.34,27.65,106.71,27.65Zm5.32,14c-3.31,0-5.9,2.38-5.9,6.84s2.59,6.84,5.9,6.84,5.91-2.38,5.91-6.84S115.35,41.62,112,41.62Z"/><path class="cls-1" d="M157,68.77h-16V28.15h16v7.49c3.17-4.53,8.07-7.77,13.32-7.77V44.93h-4.53c-5.76,0-8.79,1.66-8.79,7.2Z"/><path class="cls-1" d="M189.29,27.65c5.4,0,9.29,2.38,11.23,6.05V28.15h15.91V68.77H200.52V63.22c-1.94,3.67-5.83,6-11.23,6-9.36,0-16.78-7.7-16.78-20.81S179.93,27.65,189.29,27.65Zm5.33,14c-3.32,0-5.91,2.38-5.91,6.84s2.59,6.84,5.91,6.84,5.9-2.38,5.9-6.84S197.93,41.62,194.62,41.62Z"/><path class="cls-1" d="M238.25,27.65c5.4,0,9.29,2.38,11.23,6.05V28.15h15.91v39.9c0,10.72-5.54,20.66-20.73,20.66-13.25,0-21-6.69-22-17h15.7c.43,2.09,2.23,3.17,5.18,3.17,3.24,0,6-1.16,6-6.84V63.22c-1.94,3.67-5.83,6-11.23,6-9.36,0-16.78-7.7-16.78-20.81S228.89,27.65,238.25,27.65Zm5.33,14c-3.32,0-5.91,2.38-5.91,6.84s2.59,6.84,5.91,6.84,5.9-2.38,5.9-6.84S246.89,41.62,243.58,41.62Z"/><path class="cls-1" d="M291.17,69.27c-12.17,0-20.74-7.85-20.74-20.81S279,27.65,291.17,27.65s20.74,7.7,20.74,20.45a24.13,24.13,0,0,1-.22,3.17H286.06c.21,4.1,2.16,5.25,4.32,5.25a3.88,3.88,0,0,0,3.74-2.37H311C309.31,62.79,301.39,69.27,291.17,69.27Zm-5-25h9.5c0-2.8-2.16-4.1-4.53-4.1A4.57,4.57,0,0,0,286.2,44.28Z"/><path class="cls-2" d="M339.62,60.85H317.09V47.52l21.45-30.6h17.21V47h5.19V60.85h-5.19v7.92H339.62ZM340.92,47V35.14L333.14,47Z"/><path class="cls-2" d="M387.94,15c15.19,0,21.6,10.94,21.6,26.71s-6.41,26.79-21.6,26.79-21.61-11-21.61-26.79S372.67,15,387.94,15Zm0,15.12c-5.26,0-5.91,5-5.91,11.59s.65,11.67,5.91,11.67,5.83-5,5.83-11.67S393.12,30.1,387.94,30.1Z"/><path class="cls-2" d="M438,60.85H415.44V47.52l21.45-30.6H454.1V47h5.19V60.85H454.1v7.92H438ZM439.27,47V35.14L431.49,47Z"/><path class="cls-1" d="M478.94,0h15.27L475.12,83H459.79Z"/><path class="cls-1" d="M505.51,44.28l-13-15.55h19.94l13,15.55-13,15.49H492.55Z"/></g></g></svg>